%TF.GenerationSoftware,KiCad,Pcbnew,10.0.1*%
%TF.CreationDate,2026-06-09T01:39:37-04:00*%
%TF.ProjectId,tamagotchi,74616d61-676f-4746-9368-692e6b696361,rev?*%
%TF.SameCoordinates,Original*%
%TF.FileFunction,Copper,L2,Bot*%
%TF.FilePolarity,Positive*%
%FSLAX46Y46*%
G04 Gerber Fmt 4.6, Leading zero omitted, Abs format (unit mm)*
G04 Created by KiCad (PCBNEW 10.0.1) date 2026-06-09 01:39:37*
%MOMM*%
%LPD*%
G01*
G04 APERTURE LIST*
G04 Aperture macros list*
%AMRoundRect*
0 Rectangle with rounded corners*
0 $1 Rounding radius*
0 $2 $3 $4 $5 $6 $7 $8 $9 X,Y pos of 4 corners*
0 Add a 4 corners polygon primitive as box body*
4,1,4,$2,$3,$4,$5,$6,$7,$8,$9,$2,$3,0*
0 Add four circle primitives for the rounded corners*
1,1,$1+$1,$2,$3*
1,1,$1+$1,$4,$5*
1,1,$1+$1,$6,$7*
1,1,$1+$1,$8,$9*
0 Add four rect primitives between the rounded corners*
20,1,$1+$1,$2,$3,$4,$5,0*
20,1,$1+$1,$4,$5,$6,$7,0*
20,1,$1+$1,$6,$7,$8,$9,0*
20,1,$1+$1,$8,$9,$2,$3,0*%
G04 Aperture macros list end*
%TA.AperFunction,ComponentPad*%
%ADD10C,1.600000*%
%TD*%
%TA.AperFunction,ComponentPad*%
%ADD11RoundRect,0.500000X0.875000X0.500000X-0.875000X0.500000X-0.875000X-0.500000X0.875000X-0.500000X0*%
%TD*%
%TA.AperFunction,ComponentPad*%
%ADD12R,1.700000X1.700000*%
%TD*%
%TA.AperFunction,ComponentPad*%
%ADD13C,1.700000*%
%TD*%
%TA.AperFunction,ComponentPad*%
%ADD14C,2.500000*%
%TD*%
%TA.AperFunction,ComponentPad*%
%ADD15C,1.800000*%
%TD*%
%TA.AperFunction,ComponentPad*%
%ADD16C,2.200000*%
%TD*%
%TA.AperFunction,Conductor*%
%ADD17C,0.200000*%
%TD*%
G04 APERTURE END LIST*
D10*
%TO.P,SW3,2,2_2*%
%TO.N,Net-(U1-GPIO4_A2_D2)*%
X74900000Y-102500000D03*
X70100000Y-102500000D03*
%TO.P,SW3,1,1_1*%
%TO.N,GND*%
X74900000Y-99500000D03*
X70100000Y-99500000D03*
%TD*%
D11*
%TO.P,U1,1,GPIO2_A0_D0_1*%
%TO.N,Net-(U1-GPIO2_A0_D0)*%
X80495500Y-113439750D03*
%TO.P,U1,2,GPIO3_A1_D1_2*%
%TO.N,Net-(U1-GPIO3_A1_D1)*%
X80495500Y-110899750D03*
%TO.P,U1,3,GPIO4_A2_D2_3*%
%TO.N,Net-(U1-GPIO4_A2_D2)*%
X80495500Y-108359750D03*
%TO.P,U1,4,GPIO5_A3_D3_4*%
%TO.N,unconnected-(U1-GPIO5_A3_D3-Pad4)*%
X80495500Y-105819750D03*
%TO.P,U1,5,GPIO6_D4_SDA_5*%
%TO.N,Net-(U1-GPIO6_D4_SDA)*%
X80495500Y-103279750D03*
%TO.P,U1,6,GPIO7_D5_SCL_6*%
%TO.N,Net-(U1-GPIO7_D5_SCL)*%
X80495500Y-100739750D03*
%TO.P,U1,7,GPIO21_D6_TX_7*%
%TO.N,unconnected-(U1-GPIO21_D6_TX-Pad7)*%
X80495500Y-98199750D03*
%TO.P,U1,8,GPIO20_D7_RX_8*%
%TO.N,unconnected-(U1-GPIO20_D7_RX-Pad8)*%
X64330500Y-98199750D03*
%TO.P,U1,9,GPIO8_D8_SCK_9*%
%TO.N,unconnected-(U1-GPIO8_D8_SCK-Pad9)*%
X64330500Y-100739750D03*
%TO.P,U1,10,GPIO9_D9_MISO_10*%
%TO.N,unconnected-(U1-GPIO9_D9_MISO-Pad10)*%
X64330500Y-103279750D03*
%TO.P,U1,11,GPIO10_D10_MOSI_11*%
%TO.N,Net-(BUZZER1-+)*%
X64330500Y-105819750D03*
%TO.P,U1,12,3V3_12*%
%TO.N,+3V3*%
X64330500Y-108359750D03*
%TO.P,U1,13,GND_13*%
%TO.N,GND*%
X64330500Y-110899750D03*
%TO.P,U1,14,VBUS_14*%
%TO.N,+5V*%
X64330500Y-113439750D03*
%TD*%
D10*
%TO.P,SW1,1,1_1*%
%TO.N,GND*%
X56100000Y-96500000D03*
X60900000Y-96500000D03*
%TO.P,SW1,2,2_2*%
%TO.N,Net-(U1-GPIO2_A0_D0)*%
X56100000Y-99500000D03*
X60900000Y-99500000D03*
%TD*%
%TO.P,SW2,1,1_1*%
%TO.N,GND*%
X84100000Y-96000000D03*
X88900000Y-96000000D03*
%TO.P,SW2,2,2_2*%
%TO.N,Net-(U1-GPIO3_A1_D1)*%
X84100000Y-99000000D03*
X88900000Y-99000000D03*
%TD*%
D12*
%TO.P,BT1,1,+_1*%
%TO.N,+BATT*%
X69000000Y-41500000D03*
D13*
%TO.P,BT1,2,-_2*%
%TO.N,GND*%
X71540000Y-41500000D03*
%TD*%
D14*
%TO.P,U2,*%
%TO.N,*%
X60200000Y-61000000D03*
X60200000Y-84800000D03*
X83500000Y-61000000D03*
X83500000Y-84800000D03*
D15*
%TO.P,U2,1,GND_1*%
%TO.N,GND*%
X68040000Y-60440000D03*
%TO.P,U2,2,VCC_2*%
%TO.N,+3V3*%
X70580000Y-60440000D03*
%TO.P,U2,3,SCL_3*%
%TO.N,Net-(U1-GPIO7_D5_SCL)*%
X73120000Y-60440000D03*
%TO.P,U2,4,SDA_4*%
%TO.N,Net-(U1-GPIO6_D4_SDA)*%
X75660000Y-60440000D03*
%TD*%
D16*
%TO.P,BUZZER1,1,+_1*%
%TO.N,Net-(BUZZER1-+)*%
X68750000Y-72500000D03*
%TO.P,BUZZER1,2,-_2*%
%TO.N,GND*%
X75250000Y-72500000D03*
%TD*%
%TO.N,GND*%
D17*
X75250000Y-87150000D02*
X75250000Y-72500000D01*
%TO.N,*%
X45757716Y-87000000D02*
X45000000Y-87000000D01*
X46950000Y-85807716D02*
X45757716Y-87000000D01*
X46950000Y-83950000D02*
X46950000Y-85807716D01*
X46000000Y-83000000D02*
X46950000Y-83950000D01*
%TO.N,Net-(U1-GPIO2_A0_D0)*%
X65544142Y-96899750D02*
X62368880Y-96899750D01*
X66005500Y-97361108D02*
X65544142Y-96899750D01*
X62368880Y-96899750D02*
X60900000Y-98368630D01*
X66005500Y-101578392D02*
X66005500Y-97361108D01*
X77866858Y-113439750D02*
X66005500Y-101578392D01*
X80495500Y-113439750D02*
X77866858Y-113439750D01*
X60900000Y-98368630D02*
X60900000Y-99500000D01*
%TO.N,GND*%
X84100000Y-96000000D02*
X75250000Y-87150000D01*
%TD*%
M02*
