%TF.GenerationSoftware,KiCad,Pcbnew,10.0.1*%
%TF.CreationDate,2026-06-09T01:39:37-04:00*%
%TF.ProjectId,tamagotchi,74616d61-676f-4746-9368-692e6b696361,rev?*%
%TF.SameCoordinates,Original*%
%TF.FileFunction,Soldermask,Top*%
%TF.FilePolarity,Negative*%
%FSLAX46Y46*%
G04 Gerber Fmt 4.6, Leading zero omitted, Abs format (unit mm)*
G04 Created by KiCad (PCBNEW 10.0.1) date 2026-06-09 01:39:37*
%MOMM*%
%LPD*%
G01*
G04 APERTURE LIST*
G04 Aperture macros list*
%AMRoundRect*
0 Rectangle with rounded corners*
0 $1 Rounding radius*
0 $2 $3 $4 $5 $6 $7 $8 $9 X,Y pos of 4 corners*
0 Add a 4 corners polygon primitive as box body*
4,1,4,$2,$3,$4,$5,$6,$7,$8,$9,$2,$3,0*
0 Add four circle primitives for the rounded corners*
1,1,$1+$1,$2,$3*
1,1,$1+$1,$4,$5*
1,1,$1+$1,$6,$7*
1,1,$1+$1,$8,$9*
0 Add four rect primitives between the rounded corners*
20,1,$1+$1,$2,$3,$4,$5,0*
20,1,$1+$1,$4,$5,$6,$7,0*
20,1,$1+$1,$6,$7,$8,$9,0*
20,1,$1+$1,$8,$9,$2,$3,0*%
G04 Aperture macros list end*
%ADD10C,1.600000*%
%ADD11RoundRect,0.525400X0.900400X0.525400X-0.900400X0.525400X-0.900400X-0.525400X0.900400X-0.525400X0*%
%ADD12RoundRect,0.275000X-0.975000X-0.275000X0.975000X-0.275000X0.975000X0.275000X-0.975000X0.275000X0*%
%ADD13C,1.700000*%
%ADD14C,3.200000*%
%ADD15R,1.700000X1.700000*%
%ADD16C,2.500000*%
%ADD17C,1.800000*%
%ADD18C,2.200000*%
G04 APERTURE END LIST*
D10*
%TO.C,SW3*%
X74900000Y-102500000D03*
X70100000Y-102500000D03*
X74900000Y-99500000D03*
X70100000Y-99500000D03*
%TD*%
D11*
%TO.C,U1*%
X80495500Y-113439750D03*
X80495500Y-110899750D03*
X80495500Y-108359750D03*
X80495500Y-105819750D03*
X80495500Y-103279750D03*
X80495500Y-100739750D03*
X80495500Y-98199750D03*
X64330500Y-98199750D03*
X64330500Y-100739750D03*
X64330500Y-103279750D03*
X64330500Y-105819750D03*
X64330500Y-108359750D03*
X64330500Y-110899750D03*
X64330500Y-113439750D03*
D12*
X76885500Y-106201750D03*
X76885500Y-108106750D03*
D13*
X73710500Y-114451750D03*
X71170500Y-114451750D03*
X73710500Y-111911750D03*
X71170500Y-111911750D03*
X73710500Y-109371750D03*
X71170500Y-109371750D03*
%TD*%
D14*
%TO.C,REF\u002A\u002A*%
X95000000Y-82500000D03*
%TD*%
D10*
%TO.C,SW1*%
X56100000Y-96500000D03*
X60900000Y-96500000D03*
X56100000Y-99500000D03*
X60900000Y-99500000D03*
%TD*%
D14*
%TO.C,REF\u002A\u002A*%
X45000000Y-85000000D03*
%TD*%
D10*
%TO.C,SW2*%
X84100000Y-96000000D03*
X88900000Y-96000000D03*
X84100000Y-99000000D03*
X88900000Y-99000000D03*
%TD*%
D15*
%TO.C,BT1*%
X69000000Y-41500000D03*
D13*
X71540000Y-41500000D03*
%TD*%
D16*
%TO.C,U2*%
X60200000Y-61000000D03*
X60200000Y-84800000D03*
X83500000Y-61000000D03*
X83500000Y-84800000D03*
D17*
X68040000Y-60440000D03*
X70580000Y-60440000D03*
X73120000Y-60440000D03*
X75660000Y-60440000D03*
%TD*%
D18*
%TO.C,BUZZER1*%
X68750000Y-72500000D03*
X75250000Y-72500000D03*
%TD*%
M02*
