M48
; DRILL file KiCad 10.0.1 date 2026-06-09T01:39:46
; FORMAT={-:-/ absolute / metric / decimal}
; #@! TF.CreationDate,2026-06-09T01:39:46-04:00
; #@! TF.GenerationSoftware,Kicad,Pcbnew,10.0.1
; #@! TF.FileFunction,Plated,1,2,PTH
FMAT,2
METRIC
; #@! TA.AperFunction,Plated,PTH,ComponentDrill
T1C0.889
; #@! TA.AperFunction,Plated,PTH,ComponentDrill
T2C0.899
; #@! TA.AperFunction,Plated,PTH,ComponentDrill
T3C1.000
; #@! TA.AperFunction,Plated,PTH,ComponentDrill
T4C1.000
; #@! TA.AperFunction,Plated,PTH,ComponentDrill
T5C1.050
; #@! TA.AperFunction,Plated,PTH,ComponentDrill
T6C1.400
; #@! TA.AperFunction,Plated,PTH,ComponentDrill
T7C2.500
%
G90
G05
T1
X64.331Y-98.2
X64.331Y-103.28
X64.331Y-105.82
X64.331Y-108.36
X64.331Y-110.9
X64.331Y-113.44
X80.495Y-98.2
X80.495Y-100.74
X80.495Y-103.28
X80.495Y-105.82
X80.495Y-108.36
X80.495Y-110.9
X80.495Y-113.44
T2
X64.331Y-100.74
T3
X56.1Y-96.5
X56.1Y-99.5
X60.9Y-96.5
X60.9Y-99.5
X70.1Y-99.5
X70.1Y-102.5
X74.9Y-99.5
X74.9Y-102.5
X84.1Y-96.0
X84.1Y-99.0
X88.9Y-96.0
X88.9Y-99.0
T4
X69.0Y-41.5
X71.54Y-41.5
T5
X68.04Y-60.44
X70.58Y-60.44
X73.12Y-60.44
X75.66Y-60.44
T6
X68.75Y-72.5
X75.25Y-72.5
T7
X60.2Y-61.0
X60.2Y-84.8
X83.5Y-61.0
X83.5Y-84.8
M30
